<mxfile host="app.diagrams.net" modified="2021-01-19T07:27:54.343Z" agent="5.0 (Windows NT 10.0; Win64; x64) AppleWebKit/537.36 (KHTML, like Gecko) Chrome/87.0.4280.141 Safari/537.36 Edg/87.0.664.75" etag="v_SMAaWTTJ48zzctcQHC" version="14.2.4" type="github">
  <diagram id="LJUEpG_mCuhW2OF_Lj9l" name="Page-1">
    <mxGraphModel dx="3224" dy="1072" grid="1" gridSize="10" guides="1" tooltips="1" connect="1" arrows="1" fold="1" page="1" pageScale="1" pageWidth="1654" pageHeight="1169" math="0" shadow="0">
      <root>
        <mxCell id="0" />
        <mxCell id="1" parent="0" />
        <mxCell id="ifsrLjFecp7uYl0l_mUK-1" value="" style="rounded=0;whiteSpace=wrap;html=1;fontFamily=Times New Roman;fontSize=20;dashed=1;" vertex="1" parent="1">
          <mxGeometry x="-1090" y="50" width="240" height="830" as="geometry" />
        </mxCell>
        <mxCell id="ifsrLjFecp7uYl0l_mUK-2" value="SAR 测高获取近海&lt;br&gt;海面高信息" style="text;html=1;strokeColor=none;fillColor=none;align=center;verticalAlign=middle;whiteSpace=wrap;rounded=0;dashed=1;fontFamily=Times New Roman;fontSize=20;fontStyle=1" vertex="1" parent="1">
          <mxGeometry x="-1073.75" y="70" width="203" height="25" as="geometry" />
        </mxCell>
        <mxCell id="ifsrLjFecp7uYl0l_mUK-3" value="" style="edgeStyle=orthogonalEdgeStyle;rounded=0;orthogonalLoop=1;jettySize=auto;html=1;fontFamily=Times New Roman;fontStyle=1;fontSize=20;" edge="1" parent="1" source="ifsrLjFecp7uYl0l_mUK-4" target="ifsrLjFecp7uYl0l_mUK-6">
          <mxGeometry relative="1" as="geometry" />
        </mxCell>
        <mxCell id="ifsrLjFecp7uYl0l_mUK-4" value="SAR高度计回波信号" style="shape=process;whiteSpace=wrap;html=1;backgroundOutline=1;fontFamily=Times New Roman;fontStyle=1;fontSize=20;" vertex="1" parent="1">
          <mxGeometry x="-1066.62" y="143" width="193.25" height="60" as="geometry" />
        </mxCell>
        <mxCell id="ifsrLjFecp7uYl0l_mUK-5" value="" style="edgeStyle=orthogonalEdgeStyle;rounded=0;orthogonalLoop=1;jettySize=auto;html=1;fontFamily=Times New Roman;fontStyle=1;fontSize=20;" edge="1" parent="1" source="ifsrLjFecp7uYl0l_mUK-6" target="ifsrLjFecp7uYl0l_mUK-8">
          <mxGeometry relative="1" as="geometry" />
        </mxCell>
        <mxCell id="ifsrLjFecp7uYl0l_mUK-6" value="地球物理学改正" style="rounded=0;whiteSpace=wrap;html=1;fontFamily=Times New Roman;fontStyle=1;fontSize=20;" vertex="1" parent="1">
          <mxGeometry x="-1055.25" y="246" width="170" height="60" as="geometry" />
        </mxCell>
        <mxCell id="ifsrLjFecp7uYl0l_mUK-7" value="" style="edgeStyle=orthogonalEdgeStyle;rounded=0;orthogonalLoop=1;jettySize=auto;html=1;fontFamily=Times New Roman;fontStyle=1;fontSize=20;" edge="1" parent="1" source="ifsrLjFecp7uYl0l_mUK-8" target="ifsrLjFecp7uYl0l_mUK-10">
          <mxGeometry relative="1" as="geometry" />
        </mxCell>
        <mxCell id="ifsrLjFecp7uYl0l_mUK-8" value="&lt;span style=&quot;font-size: 20px;&quot;&gt;二阶&lt;/span&gt;&lt;span lang=&quot;EN-US&quot; style=&quot;font-size: 20px;&quot;&gt;Bessel&lt;/span&gt;&lt;span style=&quot;font-size: 20px;&quot;&gt;函数拟合&lt;/span&gt;" style="rounded=0;whiteSpace=wrap;html=1;fontFamily=Times New Roman;fontStyle=1;fontSize=20;" vertex="1" parent="1">
          <mxGeometry x="-1075.25" y="354" width="210" height="60" as="geometry" />
        </mxCell>
        <mxCell id="ifsrLjFecp7uYl0l_mUK-9" value="" style="edgeStyle=orthogonalEdgeStyle;rounded=0;orthogonalLoop=1;jettySize=auto;html=1;fontFamily=Times New Roman;fontStyle=1;fontSize=20;" edge="1" parent="1" source="ifsrLjFecp7uYl0l_mUK-10" target="ifsrLjFecp7uYl0l_mUK-12">
          <mxGeometry relative="1" as="geometry" />
        </mxCell>
        <mxCell id="ifsrLjFecp7uYl0l_mUK-10" value="&lt;span style=&quot;font-size: 20px;&quot;&gt;脉冲波峰及宽度探测&lt;/span&gt;" style="rounded=0;whiteSpace=wrap;html=1;fontFamily=Times New Roman;fontStyle=1;fontSize=20;" vertex="1" parent="1">
          <mxGeometry x="-1030.25" y="451" width="120" height="60" as="geometry" />
        </mxCell>
        <mxCell id="ifsrLjFecp7uYl0l_mUK-11" value="" style="edgeStyle=orthogonalEdgeStyle;rounded=0;orthogonalLoop=1;jettySize=auto;html=1;fontFamily=Times New Roman;fontStyle=1;fontSize=20;" edge="1" parent="1" source="ifsrLjFecp7uYl0l_mUK-12" target="ifsrLjFecp7uYl0l_mUK-14">
          <mxGeometry relative="1" as="geometry" />
        </mxCell>
        <mxCell id="ifsrLjFecp7uYl0l_mUK-12" value="Retracking" style="rounded=0;whiteSpace=wrap;html=1;fontFamily=Times New Roman;fontStyle=1;fontSize=20;" vertex="1" parent="1">
          <mxGeometry x="-1044.5" y="554" width="149" height="60" as="geometry" />
        </mxCell>
        <mxCell id="ifsrLjFecp7uYl0l_mUK-13" value="" style="edgeStyle=orthogonalEdgeStyle;rounded=0;orthogonalLoop=1;jettySize=auto;html=1;fontFamily=Times New Roman;fontStyle=1;fontSize=20;" edge="1" parent="1" source="ifsrLjFecp7uYl0l_mUK-14" target="ifsrLjFecp7uYl0l_mUK-15">
          <mxGeometry relative="1" as="geometry" />
        </mxCell>
        <mxCell id="ifsrLjFecp7uYl0l_mUK-14" value="&lt;span style=&quot;white-space: normal; font-size: 20px;&quot;&gt;海面有效波高&lt;/span&gt;" style="rounded=0;whiteSpace=wrap;html=1;fontFamily=Times New Roman;fontStyle=1;fontSize=20;" vertex="1" parent="1">
          <mxGeometry x="-1030" y="657" width="120" height="60" as="geometry" />
        </mxCell>
        <mxCell id="ifsrLjFecp7uYl0l_mUK-15" value="&lt;span style=&quot;white-space: normal; font-size: 20px;&quot;&gt;验潮站数据对比&lt;/span&gt;" style="rounded=0;whiteSpace=wrap;html=1;fontFamily=Times New Roman;fontStyle=1;fontSize=20;" vertex="1" parent="1">
          <mxGeometry x="-1030" y="760" width="120" height="60" as="geometry" />
        </mxCell>
      </root>
    </mxGraphModel>
  </diagram>
</mxfile>
